<svg id="Layer_1" data-name="Layer 1" xmlns="http://www.w3.org/2000/svg" viewBox="0 0 572.26 156.26"><defs><style>.cls-1{fill:#033a89;}.cls-2{fill:#017eff;}</style></defs><title>Primary logo horizontal</title><path class="cls-1" d="M320.1,286.93a15.4,15.4,0,0,1,5.07,9.75H320a10.37,10.37,0,0,0-3.34-6.72,10.93,10.93,0,0,0-7.71-2.65,9.59,9.59,0,0,0-6.49,2,6.82,6.82,0,0,0-2.35,5.42,5.58,5.58,0,0,0,1.5,4.07,9.81,9.81,0,0,0,3.73,2.34,49.92,49.92,0,0,0,6,1.65,54.78,54.78,0,0,1,7.41,2.19,12,12,0,0,1,4.8,3.49,9.75,9.75,0,0,1,2,6.46,10.27,10.27,0,0,1-3.72,8.17q-3.72,3.19-9.87,3.19-7.21,0-11.83-3.57a14.27,14.27,0,0,1-5.45-9.79h5.22a9.89,9.89,0,0,0,3.61,6.76q3.15,2.61,8.53,2.61a8.76,8.76,0,0,0,6.22-2.08,7,7,0,0,0,2.23-5.37,6,6,0,0,0-1.54-4.3,9.61,9.61,0,0,0-3.8-2.42,61.59,61.59,0,0,0-6.18-1.73,55,55,0,0,1-7.26-2.15,11.6,11.6,0,0,1-4.65-3.34,9.25,9.25,0,0,1-1.92-6.18,10.3,10.3,0,0,1,3.77-8.3q3.75-3.13,10.21-3.14Q316,283.32,320.1,286.93Z" transform="translate(-134.81 -219.51)"/><path class="cls-1" d="M354.43,321v4.76h-5q-6.07,0-9.06-2.88t-3-9.71V288.54H331v-4.69h6.37V273.26h5.45v10.59h11.52v4.69H342.83v24.73q0,4.46,1.62,6.1t5.68,1.65Z" transform="translate(-134.81 -219.51)"/><path class="cls-1" d="M392.94,285.89a18.33,18.33,0,0,1,7.41,7.45A23.44,23.44,0,0,1,403,304.82a23.2,23.2,0,0,1-2.69,11.44,18.64,18.64,0,0,1-7.41,7.45,23.36,23.36,0,0,1-21.46,0,18.81,18.81,0,0,1-7.49-7.49,25.33,25.33,0,0,1,0-22.88,18.52,18.52,0,0,1,7.49-7.45,23.68,23.68,0,0,1,21.46,0Zm-18.39,3.95a13.79,13.79,0,0,0-5.68,5.65,21.23,21.23,0,0,0,0,18.62,13.87,13.87,0,0,0,5.68,5.61,16.31,16.31,0,0,0,7.68,1.84,15.94,15.94,0,0,0,7.56-1.84,14,14,0,0,0,5.65-5.61,21.23,21.23,0,0,0,0-18.62,14,14,0,0,0-5.65-5.65,15.94,15.94,0,0,0-7.56-1.84A16.31,16.31,0,0,0,374.55,289.84Z" transform="translate(-134.81 -219.51)"/><path class="cls-1" d="M436.37,325.78l-11.52-17.12-10.67,17.12h-5.92l13.67-21.58-13.67-20.35h6.15l11.21,16.67,10.52-16.67h5.91l-13.59,21,14.05,21Z" transform="translate(-134.81 -219.51)"/><path class="cls-1" d="M509.48,283.24,498,325.78h-12l-9.14-30.95-9.37,30.95h-12L444.2,283.24H455l6.91,32.87,9.45-32.87h11.44l9.53,32.87,7-32.87Z" transform="translate(-134.81 -219.51)"/><path class="cls-1" d="M554.48,306.58H523.3c.16,3.79,1.18,6.58,3.08,8.38a9.86,9.86,0,0,0,7.06,2.68,10.23,10.23,0,0,0,6.26-1.84,8.18,8.18,0,0,0,3.19-5h11.44a18.46,18.46,0,0,1-3.61,8,19,19,0,0,1-7.1,5.53,22.84,22.84,0,0,1-9.64,2,22.59,22.59,0,0,1-11.06-2.65,18.59,18.59,0,0,1-7.53-7.56,26.42,26.42,0,0,1,0-23.23,18.26,18.26,0,0,1,7.53-7.57A22.9,22.9,0,0,1,534,282.7a22.42,22.42,0,0,1,11,2.61,18.38,18.38,0,0,1,7.29,7.18,20.82,20.82,0,0,1,2.58,10.41A20.16,20.16,0,0,1,554.48,306.58Zm-13.24-12.67a10.43,10.43,0,0,0-7.26-2.68,10.62,10.62,0,0,0-7.37,2.68c-2,1.8-3.1,4.43-3.31,7.91H544C544.12,298.34,543.21,295.71,541.24,293.91Z" transform="translate(-134.81 -219.51)"/><path class="cls-1" d="M588.43,285.24a13.8,13.8,0,0,1,5.45,6.83v-8.83h10.75v42.54H593.88v-8.9a14.07,14.07,0,0,1-5.45,6.87,16.15,16.15,0,0,1-9.22,2.57,18.31,18.31,0,0,1-9.68-2.61,17.73,17.73,0,0,1-6.72-7.56,29.18,29.18,0,0,1,0-23.27,17.7,17.7,0,0,1,6.72-7.57,18.31,18.31,0,0,1,9.68-2.61A16.37,16.37,0,0,1,588.43,285.24Zm-14,10.21q-3.08,3.3-3.07,9.06t3.07,9a11.63,11.63,0,0,0,16.24-.07,12.41,12.41,0,0,0,3.19-8.95q0-5.68-3.19-9a11.59,11.59,0,0,0-16.24,0Z" transform="translate(-134.81 -219.51)"/><path class="cls-1" d="M625.29,269v56.83H614.46V269Z" transform="translate(-134.81 -219.51)"/><path class="cls-1" d="M657.85,316.49v9.29h-5.68q-7.14,0-10.95-3.45t-3.8-11.52V292.38h-5.91v-9.14h5.91V272.72h10.83v10.52h9.52v9.14h-9.52V311c0,2.05.41,3.48,1.23,4.3s2.2,1.23,4.15,1.23Z" transform="translate(-134.81 -219.51)"/><path class="cls-1" d="M702.7,287.46q4.38,4.85,4.38,13.6v24.72H696.32v-23.5c0-3.37-.87-6-2.61-7.87a9.27,9.27,0,0,0-7.14-2.8,9.56,9.56,0,0,0-7.37,3c-1.84,2-2.77,4.87-2.77,8.61v22.57H665.61V269h10.82v22.81A13.67,13.67,0,0,1,682,285a16.59,16.59,0,0,1,9-2.42Q698.32,282.62,702.7,287.46Z" transform="translate(-134.81 -219.51)"/><path class="cls-2" d="M262.62,260.61l-57.78-39.18a11,11,0,0,0-12.45,0L140.53,256.9h0a22.37,22.37,0,0,0,24.84.22l33.24-22.31,69.21,47.28V270.31A11.74,11.74,0,0,0,262.62,260.61Z" transform="translate(-134.81 -219.51)"/><path class="cls-2" d="M268.06,319l.05-4.87-66.93,46.64-66-47.91,0,4.87c0,.11,0,.22,0,.33l-.08,6.64a11.78,11.78,0,0,0,4.88,9.68l54.33,39.14a11.91,11.91,0,0,0,13.6.13l60.08-41.56.1-12.77C268,319.25,268.06,319.15,268.06,319Z" transform="translate(-134.81 -219.51)"/><path class="cls-2" d="M161.77,283l-27-20.72v9.95a16,16,0,0,0,6.41,12.83l20.54,15.71Z" transform="translate(-134.81 -219.51)"/><path class="cls-2" d="M213.35,340l12-8.4L171,289.89V302.1a11.22,11.22,0,0,0,4.41,8.92Z" transform="translate(-134.81 -219.51)"/><path class="cls-2" d="M204,285.94l42.7,30.85,12.79-8.87-60.44-43.1v11.54A11.72,11.72,0,0,0,204,285.94Z" transform="translate(-134.81 -219.51)"/></svg>